<svg width="0" height="0" class="hidden">
  <symbol xmlns="http://www.w3.org/2000/svg" viewBox="0 0 444 16" id="pattern-divider-desktop">
    <g fill="none" fill-rule="evenodd">
      <path fill="#4F5D74" d="M0 8h196v1H0zM248 8h196v1H248z"></path>
      <g transform="translate(212)" fill="#CEE3E9">
        <rect width="6" height="16" rx="3"></rect>
        <rect x="14" width="6" height="16" rx="3"></rect>
      </g>
    </g>
  </symbol>
  <symbol xmlns="http://www.w3.org/2000/svg" viewBox="0 0 295 16" id="pattern-divider-mobile">
    <g fill="none" fill-rule="evenodd">
      <path fill="#4F5D74" d="M0 8h122v1H0zM173 8h122v1H173z"></path>
      <g transform="translate(138)" fill="#CEE3E9">
        <rect width="6" height="16" rx="3"></rect>
        <rect x="14" width="6" height="16" rx="3"></rect>
      </g>
    </g>
  </symbol>
  <symbol xmlns="http://www.w3.org/2000/svg" viewBox="0 0 24 24" id="icon-dice">
    <path d="M20 0H4a4.005 4.005 0 0 0-4 4v16a4.005 4.005 0 0 0 4 4h16a4.005 4.005 0 0 0 4-4V4a4.005 4.005 0 0 0-4-4ZM7.5 18a1.5 1.5 0 1 1 0-3 1.5 1.5 0 0 1 0 3Zm0-9a1.5 1.5 0 1 1 0-3 1.5 1.5 0 0 1 0 3Zm4.5 4.5a1.5 1.5 0 1 1 0-3 1.5 1.5 0 0 1 0 3Zm4.5 4.5a1.5 1.5 0 1 1 0-3 1.5 1.5 0 0 1 0 3Zm0-9a1.5 1.5 0 1 1 0-3 1.5 1.5 0 0 1 0 3Z" fill="#202733"></path>
  </symbol>
</svg>
