<svg width="0" height="0" class="hidden">
  <symbol  xmlns="http://www.w3.org/2000/svg" viewBox="0 0 24 24" id="close">
    <g clip-path="url(#clip0_429_11083)">
      <path d="M7 7.00006L17 17.0001M7 17.0001L17 7.00006" stroke-width="2.5" stroke-linecap="round" stroke-linejoin="round"></path>
    </g>
    <defs>
      <clipPath id="clip0_429_11083">
        <rect width="24" height="24" ></rect>
      </clipPath>
    </defs>
  </symbol>
  <symbol xmlns="http://www.w3.org/2000/svg" viewBox="0 0 512 512" id="logo-alipay">
    <title>Logo Alipay</title>
    <path d="M102.41 32C62.38 32 32 64.12 32 103.78v304.45C32 447.86 64.38 480 104.41 480h303.2c40 0 72.39-32.14 72.39-71.77v-3.11c-1.35-.56-115.47-48.57-174.5-76.7-39.82 48.57-91.18 78-144.5 78-90.18 0-120.8-78.22-78.1-129.72 9.31-11.22 25.15-21.94 49.73-28 38.45-9.36 99.64 5.85 157 24.61a309.41 309.41 0 0025.46-61.67H138.34V194h91.13v-31.83H119.09v-17.75h110.38V99s0-7.65 7.82-7.65h44.55v53H391v17.75H281.84V194h89.08a359.41 359.41 0 01-37.72 94.43c27 9.69 49.31 18.88 67.39 24.89 60.32 20 77.23 22.45 79.41 22.7V103.78C480 64.12 447.6 32 407.61 32h-305.2zM152 274.73q-5.81.06-11.67.63c-11.3 1.13-32.5 6.07-44.09 16.23-34.74 30-13.94 84.93 56.37 84.93 40.87 0 81.71-25.9 113.79-67.37-41.36-20-77-34.85-114.4-34.42z"></path>
  </symbol>
  <symbol  xmlns="http://www.w3.org/2000/svg" viewBox="0 0 16 16" id="menu">
    <path d="M.5 7.42h15v1.25H.5zm0 3.6h15v1.25H.5zm0-7.29h15v1.25H.5z"></path>
  </symbol>
  <symbol  xmlns="http://www.w3.org/2000/svg" viewBox="0 0 16 16" id="search">
    <path d="m14.91 13.09-3.68-3.21a4.86 4.86 0 0 0 .86-2.77A5.34 5.34 0 0 0 6.59 2a5.35 5.35 0 0 0-5.5 5.15 5.34 5.34 0 0 0 5.5 5.15 5.71 5.71 0 0 0 3.82-1.44L14.08 14zM6.59 11a4.09 4.09 0 0 1-4.25-3.9 4.09 4.09 0 0 1 4.25-3.9 4.09 4.09 0 0 1 4.25 3.9A4.08 4.08 0 0 1 6.59 11z"></path>
  </symbol>
</svg>

